<?xml version="1.0" standalone="no"?>
<!DOCTYPE svg PUBLIC "-//W3C//DTD SVG 20010904//EN"
 "http://www.w3.org/TR/2001/REC-SVG-20010904/DTD/svg10.dtd">
<svg version="1.0" xmlns="http://www.w3.org/2000/svg"
 width="1024.000000pt" height="1024.000000pt" viewBox="0 0 1024.000000 1024.000000"
 preserveAspectRatio="xMidYMid meet">
<metadata>
Created by potrace 1.16, written by Peter Selinger 2001-2019
</metadata>
<g transform="translate(0.000000,1024.000000) scale(0.100000,-0.100000)"
fill="#000000" stroke="none">
<path d="M0 5120 l0 -5120 5120 0 5120 0 0 5120 0 5120 -5120 0 -5120 0 0
-5120z m5346 4300 c88 -43 131 -168 86 -250 -51 -92 -161 -126 -257 -80 -77
37 -118 126 -96 207 16 62 43 97 93 122 54 27 120 27 174 1z m-426 -240 c33
-33 27 -82 -15 -119 -20 -17 -37 -31 -39 -31 -1 0 -81 -16 -177 -35 -478 -97
-897 -244 -1281 -451 -526 -284 -1017 -724 -1388 -1244 -185 -258 -377 -633
-482 -940 -98 -287 -154 -536 -187 -829 -16 -146 -21 -167 -41 -183 -46 -38
-116 -15 -139 45 -14 36 13 295 50 482 158 797 548 1517 1144 2110 614 612
1406 1020 2309 1190 160 30 220 31 246 5z m935 -9 c445 -82 787 -192 1150
-371 567 -279 1076 -692 1491 -1210 347 -432 615 -990 754 -1573 47 -199 97
-551 85 -613 -8 -44 -45 -76 -90 -76 -67 0 -75 18 -96 208 -52 466 -175 878
-391 1308 -109 217 -198 364 -331 541 -511 680 -1199 1189 -1952 1443 -225 76
-357 111 -614 162 -111 22 -208 43 -215 47 -31 17 -56 50 -62 80 -5 27 -2 39
17 59 30 32 56 31 254 -5z m-439 -236 c237 -56 423 -249 470 -490 45 -226 -57
-474 -250 -609 -118 -83 -225 -116 -376 -116 -147 0 -241 28 -362 107 -87 57
-149 129 -198 228 -52 106 -70 179 -70 293 0 221 131 430 331 530 46 23 109
48 139 56 72 19 239 20 316 1z m746 -182 c16 -15 18 -35 18 -211 0 -168 -2
-198 -17 -214 -22 -24 -49 -23 -67 4 -24 34 -23 393 1 420 20 22 41 23 65 1z
m-2317 -298 c32 -9 86 -30 119 -48 80 -41 189 -149 221 -218 l25 -54 -53 -8
c-185 -30 -326 -89 -441 -183 l-67 -55 -33 28 c-124 103 -175 138 -188 125 -6
-6 -8 -52 -6 -114 3 -93 6 -111 35 -168 l31 -63 -31 -38 c-30 -36 -33 -37 -51
-21 -36 32 -96 136 -117 201 -25 79 -27 204 -6 274 9 26 11 49 6 53 -20 12 -5
35 79 117 157 156 317 213 477 172z m3128 -53 c71 -32 164 -107 213 -174 24
-33 44 -65 44 -72 0 -6 -23 -17 -52 -24 -28 -6 -63 -23 -77 -36 -14 -13 -45
-33 -68 -45 -42 -21 -98 -82 -91 -100 2 -6 27 0 58 15 42 19 72 26 125 26 65
1 166 -22 188 -42 15 -14 -207 -88 -273 -91 -19 -1 -47 2 -62 6 -30 8 -33 4
-18 -24 17 -32 93 -46 174 -32 39 6 81 14 94 18 21 5 22 3 16 -23 -29 -122
-168 -256 -291 -280 l-33 -6 0 61 c0 135 -89 240 -202 241 l-38 0 0 -45 c0
-40 3 -45 34 -60 18 -9 46 -29 62 -46 24 -26 29 -39 32 -99 5 -81 7 -79 -104
-60 -79 14 -109 26 -177 72 -51 34 -58 36 -63 21 -28 -87 -59 -128 -105 -138
-61 -14 -127 55 -115 119 4 21 25 48 63 82 l57 52 -23 77 c-28 93 -31 215 -8
295 17 56 76 146 140 211 44 45 115 87 187 111 77 26 245 20 313 -10z m-2743
-384 c-1 -53 -31 -163 -62 -221 -63 -119 -201 -228 -332 -263 -65 -18 -204
-18 -279 0 -32 7 -60 16 -63 19 -10 10 59 101 145 190 96 100 187 170 280 217
69 34 224 79 279 80 27 0 32 -4 32 -22z m-1294 -83 c19 -8 52 -28 72 -45 20
-16 44 -30 52 -30 37 0 57 -62 24 -74 -39 -15 -69 -6 -98 30 -31 40 -79 64
-125 64 -113 0 -171 -126 -90 -194 36 -30 47 -32 77 -10 31 21 28 50 -8 69
-47 24 -33 65 22 65 33 0 77 -41 79 -74 5 -86 -39 -136 -121 -136 -132 0 -204
152 -127 269 47 71 158 102 243 66z m4877 -99 c20 -17 30 -38 34 -65 5 -36 2
-44 -30 -76 -38 -38 -74 -45 -122 -23 -29 13 -55 55 -55 88 0 28 26 77 47 89
34 19 96 13 126 -13z m-3259 -80 c48 -20 66 -51 66 -112 0 -29 3 -54 8 -56 4
-1 46 -46 93 -98 76 -83 95 -98 150 -120 76 -30 124 -69 138 -113 14 -42 31
-187 31 -258 0 -60 -8 -73 -51 -84 -22 -5 -31 0 -57 30 -24 30 -217 344 -337
549 -28 48 -32 51 -67 48 -125 -10 -178 155 -68 210 42 22 51 22 94 4z m1526
-15 c14 -10 31 -36 39 -57 12 -36 12 -44 -4 -78 -21 -44 -68 -69 -119 -64 -35
3 -4 48 -274 -397 -140 -230 -160 -252 -207 -221 l-28 18 6 132 c6 138 18 199
45 230 10 10 58 38 109 62 87 42 96 49 169 139 56 68 81 92 89 85 10 -8 10 0
2 33 -25 110 83 184 173 118z m-739 -97 c45 -43 54 -84 31 -138 -11 -24 -28
-47 -38 -50 -18 -5 -19 -23 -16 -355 l2 -349 63 -6 c287 -30 514 -102 722
-230 l40 -24 90 114 c49 62 94 115 101 118 7 3 10 22 7 53 -4 35 0 60 11 82
50 96 204 94 250 -3 21 -44 20 -71 -3 -123 -24 -52 -63 -73 -133 -73 -40 0
-56 -4 -64 -17 -6 -10 -46 -59 -88 -110 -42 -51 -76 -96 -76 -101 0 -5 26 -30
58 -55 83 -66 193 -176 264 -265 33 -42 64 -77 68 -77 4 0 58 34 118 75 103
70 111 77 112 108 1 107 97 173 199 136 l47 -16 72 46 c40 25 80 46 89 46 26
0 53 -31 53 -61 0 -24 -11 -36 -75 -79 -41 -27 -78 -50 -83 -50 -5 0 -12 -18
-16 -41 -8 -50 -31 -86 -67 -105 -33 -16 -102 -19 -130 -4 -15 9 -39 -3 -138
-70 l-120 -80 59 -122 c62 -132 115 -284 125 -364 l7 -49 -46 -16 -46 -17 -31
100 c-87 280 -208 493 -384 677 -314 329 -722 496 -1164 478 -352 -14 -661
-134 -947 -368 -222 -181 -434 -520 -509 -815 l-19 -71 -48 15 c-30 10 -48 22
-48 31 0 26 45 183 75 263 32 85 79 181 108 221 24 35 29 29 -116 127 -98 66
-110 72 -133 61 -37 -16 -102 -13 -136 7 -33 19 -68 78 -68 114 0 18 -19 35
-84 76 -47 29 -88 62 -91 72 -6 18 27 80 41 80 10 0 92 -44 133 -73 41 -28 47
-29 75 -17 52 21 92 23 130 5 48 -23 77 -65 80 -118 2 -42 2 -42 123 -124
l121 -82 60 77 c79 102 246 263 331 319 2 1 -40 56 -93 121 l-96 119 -55 -5
c-53 -4 -56 -3 -95 36 -36 36 -40 44 -40 92 0 89 48 140 132 140 84 0 138 -57
138 -148 0 -43 5 -54 45 -101 25 -30 67 -81 92 -115 25 -33 49 -64 53 -69 3
-4 46 15 93 43 197 113 419 180 652 198 l90 7 3 352 c2 343 2 352 -18 363 -11
6 -27 24 -35 40 -61 118 91 235 186 144z m-2499 -230 c191 -60 349 -234 402
-440 20 -76 20 -221 2 -291 -58 -217 -220 -392 -431 -465 -54 -18 -89 -37
-107 -58 -34 -37 -46 -39 -22 -2 30 44 183 320 229 412 23 47 55 120 70 162
80 225 -41 437 -273 479 -205 38 -396 -113 -410 -325 -5 -81 12 -142 79 -283
37 -79 205 -386 245 -449 17 -27 16 -27 -22 7 -24 21 -57 39 -79 43 -56 11
-156 61 -224 112 -143 108 -239 279 -256 460 -16 158 52 344 171 472 166 180
392 239 626 166z m5172 6 c107 -27 177 -69 272 -164 136 -136 193 -285 181
-475 -7 -105 -21 -159 -62 -242 -73 -144 -196 -250 -350 -301 -57 -18 -92 -23
-185 -23 -68 0 -135 6 -165 14 -203 57 -375 236 -432 451 -54 204 10 431 164
582 88 87 213 153 323 171 68 11 182 6 254 -13z m-4408 -126 c68 -32 100 -138
61 -198 -55 -84 -188 -85 -238 -2 -22 36 -25 109 -6 146 31 61 115 86 183 54z
m3427 1 c46 -23 70 -61 74 -119 3 -39 -1 -59 -17 -84 -69 -111 -253 -59 -253
72 0 110 101 177 196 131z m-2436 -145 c36 -21 61 -64 66 -110 3 -26 17 -39
93 -89 107 -71 135 -98 114 -111 -39 -25 -110 -4 -190 55 l-49 36 -33 -21
c-99 -60 -228 23 -214 138 7 50 23 77 63 103 37 25 109 25 150 -1z m1470 3
c96 -45 98 -199 4 -248 -39 -20 -98 -19 -140 4 l-33 18 -63 -42 c-117 -79
-250 -67 -147 13 50 39 150 102 162 102 6 0 10 14 10 31 0 107 107 170 207
122z m-3319 -109 c96 -48 141 -175 96 -270 -49 -102 -184 -149 -284 -98 -64
32 -110 110 -110 184 0 164 151 257 298 184z m907 -205 c37 -45 71 -117 80
-169 4 -25 12 -55 19 -67 15 -30 106 -93 134 -93 67 0 130 -57 118 -106 -11
-44 -44 -63 -107 -64 l-56 0 -109 110 c-60 61 -112 121 -115 134 -4 12 -7 63
-8 112 -1 49 -4 108 -7 132 -8 53 12 57 51 11z m3267 -126 l-4 -148 -112 -107
c-121 -117 -155 -136 -209 -119 -73 25 -98 82 -57 134 15 19 33 27 72 32 56 7
146 54 166 86 6 10 18 50 26 90 9 39 27 91 41 115 25 43 62 77 75 69 4 -2 5
-71 2 -152z m-5046 -207 c13 -21 15 -51 12 -184 l-3 -159 76 58 c42 33 85 59
95 59 46 0 59 -53 22 -87 -43 -37 -208 -153 -232 -163 -18 -7 -28 -5 -40 9
-14 15 -16 50 -16 242 0 162 3 228 12 237 20 20 56 14 74 -12z m3542 -51 c194
-46 364 -177 444 -344 29 -59 33 -77 36 -176 3 -81 -2 -143 -17 -234 -28 -164
-28 -161 12 -161 69 0 107 -59 107 -164 0 -71 -31 -160 -73 -205 -27 -29 -76
-51 -114 -51 -27 0 -29 -3 -46 -78 -59 -263 -262 -442 -501 -442 -139 0 -241
45 -352 155 -81 81 -121 152 -154 279 l-23 86 -35 0 c-123 0 -222 210 -166
350 18 44 54 69 104 73 36 2 36 2 9 155 -25 132 -30 297 -12 357 7 22 28 67
48 99 19 32 35 60 35 62 0 2 -30 4 -67 4 l-68 1 34 29 c61 52 98 65 192 65
l85 0 33 38 c42 47 101 82 171 101 72 19 238 20 318 1z m3345 -39 c12 -31 6
-289 -7 -321 -26 -61 -115 -71 -143 -16 -25 50 47 118 96 91 21 -10 21 -9 21
83 l0 93 -55 -10 -54 -10 -6 -46 c-7 -51 -15 -72 -30 -71 -6 1 -10 37 -10 88
l0 86 80 23 c98 27 102 28 108 10z m-2522 -357 c28 -14 43 -66 31 -105 -10
-34 -9 -36 81 -149 56 -71 99 -115 110 -115 27 0 75 -27 87 -49 5 -11 10 -39
10 -64 0 -34 6 -49 26 -68 34 -31 154 -170 154 -178 0 -4 -14 -15 -31 -25 -36
-21 -25 -30 -129 99 -65 80 -77 91 -114 97 -52 9 -86 46 -86 94 0 27 -14 52
-64 118 -35 46 -76 104 -91 130 -15 25 -31 44 -36 41 -14 -9 -77 22 -88 43
-14 26 -14 78 0 103 21 41 89 54 140 28z m-1854 -4 c28 -19 45 -78 33 -110
-11 -28 -46 -53 -80 -57 -16 -2 -31 -15 -43 -38 -11 -19 -40 -64 -66 -99 -72
-99 -86 -123 -99 -167 -15 -52 -40 -74 -90 -81 -29 -4 -43 -12 -56 -33 -22
-38 -146 -190 -155 -190 -15 1 -53 41 -48 52 6 17 129 168 155 192 15 13 20
26 16 42 -14 57 23 108 86 119 28 5 45 16 62 40 57 81 141 185 150 185 5 0 4
9 -2 19 -18 34 -12 93 12 118 26 27 91 32 125 8z m-1211 -45 c23 -5 107 -14
187 -19 149 -10 185 -20 221 -59 17 -20 17 -23 0 -74 -10 -29 -32 -123 -49
-208 -28 -136 -33 -151 -40 -120 -14 64 -58 164 -100 230 -49 74 -110 136
-209 209 -73 54 -74 56 -10 41z m4214 -4 c0 -2 -35 -29 -78 -59 -136 -95 -232
-222 -272 -360 -15 -48 -30 -62 -30 -28 0 22 -51 241 -74 314 -14 46 -13 49 8
74 20 23 33 27 122 34 54 5 142 13 194 17 52 5 103 10 113 10 9 1 17 0 17 -2z
m-4503 -91 c48 -33 35 -114 -22 -135 -30 -11 -82 5 -95 30 -40 74 49 153 117
105z m4832 -2 c54 -46 22 -136 -49 -136 -37 0 -80 40 -80 74 0 23 18 61 34 71
20 14 73 8 95 -9z m702 -53 c186 0 205 -5 197 -47 -7 -36 -44 -42 -208 -36
-104 4 -168 2 -189 -5 -57 -20 -103 16 -86 69 9 27 42 38 80 28 16 -5 109 -9
206 -9z m-5907 -64 c69 -34 136 -91 135 -115 0 -9 -13 -26 -29 -38 l-28 -23
-52 35 c-80 54 -100 57 -365 53 -234 -3 -241 -4 -295 -29 -30 -14 -61 -33 -68
-41 -10 -13 -9 -17 10 -23 13 -4 151 -11 308 -14 327 -8 330 -9 413 -101 70
-78 79 -114 85 -336 2 -109 0 -220 -6 -258 -27 -172 -132 -270 -309 -291 l-62
-7 -88 -95 c-48 -53 -93 -102 -98 -110 -7 -9 -25 -13 -50 -11 -34 3 -43 9 -77
59 -32 47 -45 58 -76 64 -104 19 -235 120 -290 223 -55 103 -62 151 -62 412 0
259 6 297 61 408 59 121 206 235 339 262 25 5 158 8 295 7 l250 -2 59 -29z
m527 -43 c73 -55 114 -95 143 -138 23 -33 80 -98 129 -145 l87 -86 -29 -28
-30 -28 -130 82 c-205 128 -245 160 -274 222 -42 85 -48 130 -25 167 11 17 22
31 23 31 2 0 50 -35 106 -77z m4555 42 c21 -32 14 -106 -15 -164 -29 -56 -76
-98 -173 -155 -45 -27 -113 -69 -150 -93 -37 -23 -70 -43 -74 -43 -3 0 -19 14
-36 30 l-30 31 78 79 c47 47 93 105 112 142 43 80 45 82 100 114 170 98 164
96 188 59z m1217 -138 c44 -19 103 -87 116 -134 6 -21 11 -116 11 -210 l0
-173 57 0 c63 0 93 -18 93 -56 0 -35 -40 -56 -97 -53 l-48 3 -6 -194 c-7 -236
-16 -269 -98 -351 -89 -89 -98 -90 -477 -87 -284 3 -323 5 -355 21 -66 33
-117 85 -151 155 l-33 66 -3 198 -4 198 -329 0 -329 0 0 55 0 56 328 -2 327
-1 5 183 c5 200 12 229 69 283 55 53 73 55 499 56 307 0 400 -3 425 -13z
m-7590 -440 c53 -40 80 -84 85 -138 6 -64 -2 -92 -40 -134 -42 -49 -83 -68
-143 -68 -165 0 -252 185 -145 307 44 50 85 67 152 63 42 -2 65 -10 91 -30z
m8242 14 c108 -50 147 -169 90 -268 -48 -82 -155 -109 -250 -63 -76 37 -116
144 -84 227 23 62 109 123 174 123 17 0 48 -9 70 -19z m-5805 -25 c45 -16 80
-67 80 -116 0 -43 -33 -99 -70 -117 -34 -17 -95 -16 -130 2 -58 30 -81 122
-45 182 34 59 91 75 165 49z m3306 -11 c80 -52 76 -178 -7 -221 -34 -17 -89
-18 -124 -2 -61 28 -86 125 -48 190 32 55 120 72 179 33z m-2651 1 c39 -16 55
-42 55 -86 0 -69 -86 -104 -144 -59 -24 18 -41 21 -183 22 l-158 2 -3 38 -3
37 159 0 c135 0 161 2 166 15 3 9 20 22 38 30 41 18 33 17 73 1z m1975 -21
c24 -23 33 -25 175 -27 l150 -3 0 -35 0 -35 -154 -2 c-140 -1 -155 -3 -175
-22 -52 -49 -146 -10 -146 61 0 87 87 123 150 63z m-2950 -80 l0 -55 -277 0
c-243 0 -279 2 -295 17 -24 21 -23 48 2 73 19 19 33 20 295 20 l275 0 0 -55z
m33 -201 l29 -35 -28 -27 c-60 -60 -144 -185 -160 -239 -21 -72 -47 -98 -176
-177 l-108 -66 -17 27 c-37 56 -10 176 55 249 15 17 56 50 92 74 75 50 270
211 270 222 0 17 16 7 43 -28z m3889 -53 c53 -49 135 -114 181 -145 97 -64
141 -116 163 -194 14 -47 14 -59 2 -90 -8 -20 -22 -38 -32 -40 -19 -4 -144 87
-186 135 l-25 28 28 -24 c15 -14 27 -19 27 -13 0 6 -5 14 -10 17 -6 3 -43 48
-84 99 -41 51 -106 128 -144 171 l-70 78 21 33 c12 19 24 34 27 34 3 0 48 -40
102 -89z m-3323 -6 c59 -60 90 -85 108 -85 13 0 35 -7 48 -16 47 -31 23 -114
-33 -114 -19 0 -23 -4 -17 -17 27 -63 8 -116 -47 -129 -22 -5 -33 0 -58 24
-39 39 -39 75 -1 112 l28 29 -23 41 c-13 23 -51 72 -84 109 -33 37 -60 72 -60
76 0 10 41 55 50 55 4 0 44 -38 89 -85z m2780 28 c2 -1 -28 -37 -67 -80 -38
-43 -79 -93 -90 -112 l-21 -34 30 -28 c45 -42 37 -98 -19 -128 -43 -23 -102
20 -102 74 0 8 14 30 30 48 37 43 39 55 4 28 -33 -26 -58 -27 -84 -1 -26 26
-26 81 0 105 15 13 30 16 60 12 22 -3 40 -2 40 3 0 4 34 44 77 89 l76 82 31
-28 c17 -15 33 -29 35 -30z m-2985 -95 c22 -169 97 -402 163 -510 l23 -38 30
26 c46 42 232 184 351 271 83 60 109 83 109 101 0 27 42 72 67 72 38 0 60 -12
77 -41 34 -57 -3 -119 -70 -119 -17 0 -38 -7 -45 -16 -14 -17 -315 -253 -407
-318 -30 -22 -59 -36 -67 -32 -13 5 -14 2 -4 -17 16 -29 109 -157 115 -157 3
0 33 24 68 54 183 155 445 287 679 342 l77 18 0 89 0 89 36 -22 c195 -121 392
-131 602 -30 46 22 86 40 88 40 2 0 4 -38 4 -85 0 -84 0 -85 28 -91 266 -59
555 -202 729 -359 l60 -54 55 77 c67 94 75 107 60 98 -16 -10 -465 333 -480
367 -2 4 -21 7 -43 7 -45 0 -89 35 -89 70 0 29 26 76 45 84 49 18 115 -18 115
-63 0 -17 225 -196 441 -351 33 -24 48 -41 45 -52 -8 -34 4 -17 43 60 68 136
129 336 146 483 l7 55 50 -10 51 -10 -6 -79 c-9 -116 -61 -304 -118 -431 -28
-61 -52 -115 -55 -121 -2 -5 46 -43 107 -84 100 -66 113 -72 135 -62 38 17 93
13 129 -9 32 -20 65 -72 65 -103 0 -9 28 -32 63 -53 114 -68 135 -99 99 -144
-24 -29 -48 -24 -132 31 l-63 41 -38 -21 c-57 -32 -120 -28 -164 10 -36 32
-61 95 -50 128 4 15 -11 31 -72 73 -110 77 -145 96 -150 81 -20 -57 -231 -286
-338 -369 -41 -31 -75 -58 -75 -60 0 -1 37 -47 81 -101 45 -54 87 -106 94
-116 11 -15 21 -17 56 -12 113 16 194 -103 141 -205 -69 -130 -278 -63 -259
83 5 37 2 43 -65 121 -39 44 -86 102 -105 127 l-34 45 -102 -50 c-193 -96
-491 -176 -659 -176 l-58 0 -2 -327 -3 -328 31 -31 c54 -55 53 -125 -3 -174
-57 -50 -141 -38 -184 26 -34 52 -20 124 33 162 17 12 18 37 18 343 l0 329
-50 0 c-184 0 -510 89 -699 191 -41 22 -77 36 -80 31 -3 -5 -50 -63 -103 -129
-94 -116 -98 -124 -98 -170 0 -109 -94 -171 -195 -129 -70 29 -98 132 -55 201
26 42 86 67 139 59 35 -6 40 -3 62 27 13 19 56 73 95 120 l72 85 -70 55 c-85
65 -263 249 -315 324 -21 30 -40 55 -43 55 -3 0 -50 -31 -105 -68 -86 -58
-100 -71 -103 -97 -5 -59 -32 -114 -66 -135 -44 -27 -115 -27 -149 0 -32 25
-30 25 -80 -9 -78 -53 -125 -73 -147 -61 -24 13 -35 52 -21 77 5 11 46 44 90
73 68 44 81 57 87 86 15 79 104 123 189 93 30 -11 36 -8 131 56 54 38 103 72
108 76 6 5 -12 53 -42 116 -75 159 -139 408 -130 504 3 34 12 39 84 48 6 0 14
-22 18 -51z m-2415 -26 c23 -23 29 -40 35 -97 17 -171 53 -408 77 -505 132
-530 339 -972 656 -1397 293 -392 746 -806 1157 -1058 239 -147 622 -321 894
-409 154 -50 397 -109 571 -141 152 -27 190 -41 215 -77 38 -53 2 -118 -65
-118 -67 0 -387 58 -543 99 -549 143 -1041 379 -1481 709 -794 597 -1343 1402
-1560 2287 -60 247 -115 604 -101 660 18 72 95 97 145 47z m7988 -4 c28 -27
30 -82 8 -255 -43 -335 -152 -738 -280 -1038 -380 -889 -1106 -1650 -2000
-2098 -292 -145 -703 -290 -990 -348 -129 -25 -345 -59 -383 -59 -90 0 -111
112 -28 154 17 9 108 30 201 46 303 55 531 120 817 236 158 64 423 192 553
267 347 201 774 562 1056 892 381 446 650 963 794 1529 37 147 79 389 95 544
5 57 15 112 21 123 23 43 94 47 136 7z m-2266 -185 c28 -88 62 -154 110 -220
41 -55 139 -142 190 -168 16 -9 29 -17 29 -18 0 -2 -33 0 -72 4 -40 4 -113 8
-163 8 -99 1 -152 12 -186 39 l-22 18 31 120 c16 65 36 156 43 202 7 45 14 82
15 82 1 0 12 -30 25 -67z m-3531 24 c0 -12 16 -89 36 -172 20 -82 38 -160 41
-172 4 -17 -2 -27 -28 -42 -35 -22 -80 -27 -289 -36 l-135 -6 70 47 c113 77
176 147 229 255 25 51 48 109 52 126 7 36 24 35 24 0z m-620 -207 c12 -12 20
-33 20 -55 0 -45 -29 -75 -72 -75 -68 0 -102 78 -56 127 27 29 80 31 108 3z
m4840 -2 c47 -51 11 -128 -61 -128 -44 0 -69 27 -69 75 0 67 84 102 130 53z
m-5878 -153 c79 -19 187 -47 241 -61 l97 -26 0 -34 c0 -41 -10 -47 -118 -70
-73 -16 -81 -19 -68 -33 36 -42 58 -113 37 -125 -5 -3 -29 0 -54 8 l-45 13
-18 -43 c-10 -23 -21 -41 -26 -38 -4 3 -8 36 -8 74 0 78 -11 113 -44 147 -24
24 -43 68 -24 57 17 -11 -8 29 -32 51 -38 34 -102 115 -92 115 6 0 75 -16 154
-35z m6906 -11 c5 -50 -20 -96 -72 -135 l-41 -30 -17 22 c-26 32 -23 82 8 119
27 32 91 71 109 66 6 -1 11 -20 13 -42z m-788 -35 c12 -16 24 -28 26 -26 7 7
206 -58 254 -83 54 -28 122 -98 150 -154 26 -55 45 -154 36 -191 l-7 -28 -22
31 c-26 36 -95 84 -117 80 -10 -2 -14 -12 -12 -31 3 -27 3 -27 -60 -27 -83 0
-131 14 -174 52 -42 37 -86 119 -90 168 -2 19 -8 53 -14 75 -12 51 -13 165 -1
165 5 0 19 -14 31 -31z m-6179 -189 c31 -80 79 -239 79 -262 0 -19 -5 -22 -52
-32 -20 -5 -30 -1 -37 12 -12 22 -116 382 -125 432 l-6 35 60 -65 c37 -41 67
-86 81 -120z m1011 42 c76 -35 149 -107 185 -181 21 -41 28 -73 31 -137 4 -72
7 -84 22 -84 33 0 107 -38 148 -74 56 -51 86 -125 79 -197 -8 -91 -52 -153
-137 -193 -44 -20 -59 -21 -486 -21 l-440 0 -59 30 c-190 97 -154 374 58 441
l55 17 4 76 c8 162 119 302 276 347 76 22 190 12 264 -24z m6034 14 c9 -37
-16 -77 -72 -116 -28 -19 -79 -54 -113 -78 -34 -24 -69 -41 -77 -38 -11 4 -14
28 -14 106 0 55 2 100 4 100 19 0 40 -18 50 -42 l13 -29 44 33 c122 94 154
106 165 64z m-1139 -131 c15 -25 34 -45 41 -45 7 0 39 11 72 25 33 14 65 25
72 25 16 0 52 -85 43 -100 -3 -5 -16 -10 -28 -10 -79 0 -191 -80 -234 -167
-24 -49 -28 -70 -28 -138 0 -95 25 -155 88 -212 62 -55 120 -77 207 -77 126
-1 227 62 278 173 30 66 33 162 8 234 -9 26 -14 52 -11 57 3 6 29 10 56 10 50
0 50 0 69 -46 11 -25 20 -53 20 -61 0 -19 56 -12 161 21 l74 23 3 -105 c1 -57
1 -106 -1 -108 -1 -2 -30 4 -62 12 -91 24 -164 32 -173 20 -5 -6 -21 -44 -37
-84 -15 -40 -34 -77 -42 -83 -7 -6 -13 -20 -13 -29 0 -21 64 -78 98 -86 33 -9
27 -24 -29 -79 -43 -43 -52 -48 -59 -34 -9 15 -69 90 -90 113 -5 4 -46 -7 -92
-25 -45 -18 -84 -34 -85 -34 -1 0 6 -34 17 -75 10 -41 20 -88 22 -105 l3 -30
-112 -3 -113 -3 1 38 c0 21 8 70 19 108 10 39 17 70 16 71 -12 6 -126 44 -133
44 -5 0 -20 -20 -33 -45 -48 -93 -153 -164 -242 -165 l-48 0 0 99 0 98 61 6
c56 5 66 9 105 48 24 24 44 46 44 50 0 4 -16 33 -35 65 -20 33 -41 76 -47 97
-17 58 -25 60 -130 41 -51 -9 -105 -19 -120 -21 l-28 -5 0 94 c0 52 2 97 5
100 3 3 38 -3 78 -14 40 -10 97 -21 127 -24 l55 -6 20 57 c10 32 36 82 57 112
21 30 38 57 38 61 0 5 -16 24 -36 43 l-35 34 48 42 c26 24 51 43 55 43 3 0 19
-20 35 -45z m-3752 -169 c43 -18 69 -58 61 -91 -10 -40 -39 -62 -97 -74 -30
-7 -77 -27 -106 -46 -43 -29 -54 -42 -63 -77 -21 -82 -41 -127 -72 -157 -46
-45 -85 -41 -67 5 5 14 11 68 14 122 l6 97 68 65 c38 36 83 84 101 107 19 26
44 46 63 52 45 13 53 13 92 -3z m2723 3 c17 -6 48 -32 69 -57 21 -26 69 -77
107 -113 l69 -66 7 -94 c5 -52 11 -106 15 -121 7 -26 5 -28 -24 -28 -25 0 -37
8 -61 42 -17 23 -35 60 -41 82 -6 23 -15 55 -20 71 -13 45 -96 103 -167 117
-72 14 -102 39 -102 88 0 68 71 106 148 79z m1340 -45 c168 -70 179 -293 18
-376 -61 -31 -162 -23 -213 18 -99 78 -111 220 -28 308 59 60 150 81 223 50z
m-3141 -479 c3 -22 -35 -53 -144 -119 -55 -33 -63 -41 -63 -68 0 -78 -61 -138
-140 -138 -68 0 -111 34 -131 104 -14 53 10 120 55 147 38 23 106 25 148 3 29
-15 31 -15 57 9 68 62 122 87 181 84 27 -2 36 -7 37 -22z m913 4 c25 -11 61
-36 81 -55 35 -34 36 -34 67 -19 99 50 212 -15 212 -121 0 -80 -77 -151 -150
-138 -79 14 -115 52 -126 137 -5 35 -11 46 -33 54 -38 15 -171 112 -178 130
-14 36 58 43 127 12z m-760 -74 c22 -24 23 -29 17 -149 -9 -204 -29 -238 -166
-295 -76 -30 -85 -38 -161 -127 -45 -52 -85 -92 -89 -89 -5 2 -6 -15 -3 -40 6
-60 -12 -100 -55 -120 -47 -23 -98 -12 -135 27 -70 76 -2 201 101 184 l36 -5
49 82 c27 45 101 165 163 267 196 316 195 316 243 265z m567 -17 c11 -12 34
-45 51 -73 27 -45 75 -123 266 -429 57 -92 60 -94 91 -89 56 9 117 -35 129
-93 21 -96 -86 -166 -171 -114 -41 24 -61 83 -45 129 9 25 8 31 -1 29 -7 -2
-48 37 -92 85 -67 76 -89 93 -160 127 -137 67 -148 85 -165 274 -13 143 -9
173 23 185 25 10 43 2 74 -31z m1477 -27 c48 -42 61 -131 27 -187 -21 -34 -75
-64 -115 -64 -50 0 -106 38 -127 86 -26 57 -17 105 26 152 49 53 135 59 189
13z m-3418 -14 c39 -42 49 -73 40 -122 -19 -99 -141 -146 -220 -84 -77 61 -74
179 7 230 25 16 44 19 86 16 47 -3 59 -9 87 -40z m-494 -128 c10 -5 18 -20 18
-34 0 -52 5 -51 -465 -53 -241 -1 -448 -5 -461 -8 -28 -7 -64 26 -64 60 0 51
3 51 495 48 274 -2 466 -7 477 -13z m3636 -256 c28 -36 32 -38 81 -35 46 4 53
7 68 35 8 18 17 34 18 35 4 5 127 -39 141 -50 7 -5 9 -22 4 -49 -7 -36 -5 -43
19 -65 32 -29 40 -30 85 -3 19 11 40 18 45 15 5 -4 28 -34 51 -68 l41 -61 -30
-31 c-28 -30 -29 -33 -18 -73 10 -38 14 -42 49 -48 l39 -7 -3 -76 -3 -77 -36
-3 c-28 -2 -38 -8 -43 -25 -11 -41 -6 -71 15 -93 26 -27 21 -45 -30 -103 l-38
-45 -34 16 c-52 25 -62 24 -91 -3 -23 -21 -25 -30 -21 -70 l5 -46 -73 -28
c-40 -16 -74 -24 -76 -19 -2 5 -12 24 -23 42 -18 30 -23 32 -75 32 -30 0 -55
-4 -55 -9 0 -5 -12 -23 -26 -40 -20 -24 -29 -28 -42 -21 -9 6 -39 19 -65 30
l-48 20 7 48 c6 45 4 50 -21 66 -27 18 -51 16 -111 -10 -10 -4 -84 95 -84 113
0 4 10 17 21 29 18 19 20 30 15 68 -6 38 -11 46 -29 46 -63 1 -68 7 -65 84 l3
71 41 9 c37 7 41 12 52 50 10 38 9 43 -14 67 -13 14 -24 32 -24 41 0 13 44 80
77 117 2 3 24 -5 50 -18 l46 -22 29 28 c27 27 28 32 19 72 l-9 43 61 28 c34
16 65 29 69 29 3 1 20 -16 36 -36z m-3792 -47 c20 -29 18 -41 -14 -78 -16 -18
-55 -76 -86 -128 -90 -147 -99 -160 -121 -160 -11 1 -81 56 -160 126 -77 70
-159 139 -182 156 -47 32 -55 59 -26 90 15 17 35 18 296 16 266 -2 280 -3 293
-22z m553 5 c27 -10 64 -30 84 -45 l34 -26 51 34 c63 42 135 60 221 54 82 -6
146 -33 205 -88 99 -92 141 -198 134 -339 -6 -110 -35 -184 -100 -262 -58 -70
-118 -111 -243 -164 -94 -40 -183 -95 -224 -139 -14 -14 -28 -26 -33 -26 -5 0
-39 25 -76 56 -37 30 -96 69 -132 86 -36 16 -101 47 -145 68 -166 80 -265 230
-265 405 0 179 111 343 263 391 63 19 168 17 226 -5z m4532 -2 c26 -42 15 -55
-250 -286 -31 -27 -44 -28 -65 -7 -34 34 -11 71 100 159 27 21 53 43 59 47 5
4 -46 8 -114 8 l-122 0 2 -153 c1 -84 -1 -159 -5 -165 -16 -27 -44 -32 -67
-14 -22 18 -22 22 -20 213 1 106 6 198 11 204 5 6 91 10 235 9 186 0 228 -3
236 -15z m-2631 -257 c232 -82 385 -256 426 -484 23 -124 3 -286 -43 -357
l-18 -29 -89 84 c-86 81 -88 84 -78 114 17 48 25 143 13 170 -6 16 -10 19 -10
9 -2 -30 -99 -41 -121 -14 -18 21 2 42 52 56 29 7 43 7 54 -2 22 -18 17 5 -15
69 -32 63 -107 139 -168 170 -65 34 -182 54 -245 42 -80 -15 -118 -30 -175
-66 -57 -36 -65 -55 -32 -77 25 -18 23 -60 -3 -65 -10 -2 -32 3 -48 12 -29 14
-31 14 -45 -15 -9 -16 -20 -41 -26 -55 -8 -22 -7 -25 4 -16 10 8 24 8 53 1 45
-13 56 -26 43 -51 -14 -25 -73 -24 -99 2 l-20 20 1 -77 c1 -43 3 -70 6 -61 5
21 38 31 79 26 40 -4 45 -40 9 -56 -34 -16 -75 -15 -76 1 0 8 -2 9 -5 0 -9
-20 46 -114 97 -168 27 -28 75 -65 106 -81 55 -28 64 -29 189 -29 l130 0 76
37 75 38 99 -101 c134 -136 151 -169 90 -169 -24 0 -49 12 -87 40 -49 37 -55
39 -74 25 -77 -58 -181 -85 -326 -85 -166 0 -261 30 -384 123 -135 102 -224
284 -225 457 0 264 208 514 480 575 88 20 256 13 330 -13z m-118 -344 c48 -14
101 -61 127 -113 32 -60 29 -151 -5 -201 -32 -47 -47 -59 -99 -84 -140 -67
-305 38 -305 195 0 148 136 247 282 203z m947 -268 c152 -43 194 -234 69 -310
-45 -27 -100 -26 -134 3 -24 21 -26 27 -20 70 4 26 11 47 16 47 5 0 18 -13 30
-30 25 -35 50 -38 75 -10 42 47 7 136 -55 141 -73 6 -106 -20 -130 -103 -25
-83 -80 -77 -80 9 0 80 51 151 126 178 47 17 60 18 103 5z m-2010 -106 c17
-14 31 -34 31 -45 0 -18 1 -19 25 -3 29 19 60 11 76 -18 9 -16 7 -26 -9 -47
-25 -34 -42 -36 -70 -11 -12 11 -22 16 -22 10 0 -6 -11 -22 -25 -35 -19 -19
-35 -25 -71 -25 -39 0 -51 5 -75 31 -88 94 42 226 140 143z m1058 -585 c63
-24 122 -109 123 -177 0 -64 -44 -138 -102 -168 -40 -21 -131 -18 -178 6 -124
63 -127 258 -4 327 43 25 114 30 161 12z"/>
<path d="M5160 8779 c-58 -11 -128 -37 -162 -61 -16 -11 -32 -16 -38 -13 -30
19 10 -30 66 -79 62 -55 65 -57 86 -41 13 8 40 20 60 25 l36 10 4 81 c2 45 1
82 -2 83 -3 2 -25 -1 -50 -5z"/>
<path d="M5310 8705 c0 -74 2 -85 18 -85 9 0 39 -12 66 -25 l50 -24 45 41 c90
79 89 77 29 108 -50 27 -120 52 -180 64 l-28 6 0 -85z"/>
<path d="M4833 8546 c-23 -46 -45 -100 -48 -120 l-7 -36 100 0 99 0 13 45 c7
25 17 48 22 51 9 6 -118 144 -132 144 -3 0 -24 -38 -47 -84z"/>
<path d="M5585 8579 c-65 -62 -81 -85 -67 -102 5 -7 15 -29 21 -49 l13 -38 98
0 98 0 -12 48 c-7 26 -26 71 -42 101 -57 105 -45 101 -109 40z"/>
<path d="M5174 8501 c-147 -89 -100 -304 70 -327 59 -8 127 24 167 79 56 78
29 196 -56 244 -52 29 -137 31 -181 4z m139 -84 c18 -14 30 -35 34 -59 5 -32
1 -41 -25 -68 -34 -33 -59 -37 -101 -15 -33 16 -41 33 -41 81 0 25 8 42 26 59
33 31 71 32 107 2z"/>
<path d="M4777 8288 c6 -7 16 -36 23 -65 6 -28 25 -72 41 -98 16 -25 29 -50
29 -55 0 -20 17 -8 79 54 l64 65 -17 55 -18 56 -105 0 c-83 0 -103 -3 -96 -12z"/>
<path d="M5536 8253 c-9 -26 -16 -51 -16 -57 0 -6 27 -40 61 -75 l61 -63 25
37 c14 21 38 75 53 121 l27 84 -97 0 -98 0 -16 -47z"/>
<path d="M5012 8054 l-72 -66 63 -32 c66 -35 108 -50 170 -61 l37 -6 0 93 0
93 -59 23 c-32 12 -60 22 -63 22 -2 0 -36 -30 -76 -66z"/>
<path d="M5385 8099 c-22 -10 -48 -19 -57 -19 -16 0 -18 -11 -18 -91 l0 -92
56 6 c57 6 139 41 183 77 l23 20 -63 60 c-35 32 -68 59 -74 59 -5 0 -28 -9
-50 -20z"/>
<path d="M3648 8323 c-63 -21 -96 -42 -153 -93 l-55 -49 48 -32 c26 -18 77
-54 115 -82 39 -28 73 -47 82 -43 12 4 15 32 15 155 0 82 -3 152 -7 154 -5 2
-25 -2 -45 -10z"/>
<path d="M3800 8232 l0 -111 53 23 c28 13 77 31 107 40 30 10 62 20 70 23 35
11 -123 114 -200 129 l-30 7 0 -111z"/>
<path d="M7687 7226 c-78 -32 -134 -72 -170 -121 -28 -38 -67 -108 -67 -120 0
-3 42 -5 94 -5 l94 0 6 33 c7 36 62 152 96 205 26 38 22 39 -53 8z"/>
<path d="M8019 7175 c27 -43 58 -104 68 -136 l18 -59 88 0 87 0 -15 37 c-43
103 -158 201 -268 228 -28 7 -27 7 22 -70z"/>
<path d="M7833 7199 c-43 -63 -80 -139 -88 -182 l-7 -37 132 0 133 0 -7 31
c-9 49 -61 150 -99 193 l-34 40 -30 -45z"/>
<path d="M7422 6838 c2 -35 6 -62 11 -60 4 1 48 2 97 2 l90 0 0 60 0 60 -100
0 -101 0 3 -62z"/>
<path d="M7720 6840 l0 -60 150 0 150 0 0 60 0 60 -150 0 -150 0 0 -60z"/>
<path d="M8120 6841 l0 -60 95 -3 95 -3 0 63 0 62 -95 0 -95 0 0 -59z"/>
<path d="M7455 6668 c14 -46 71 -131 114 -169 44 -39 124 -83 173 -95 l27 -6
-45 79 c-45 78 -84 171 -84 198 0 12 -18 15 -96 15 -94 0 -95 0 -89 -22z"/>
<path d="M7745 6658 c9 -44 49 -132 87 -191 l31 -49 24 29 c31 37 113 200 113
224 0 18 -9 19 -131 19 l-131 0 7 -32z"/>
<path d="M8082 6623 c-13 -38 -44 -101 -68 -141 -24 -40 -44 -75 -44 -78 0
-10 57 10 112 39 32 16 78 51 102 77 41 44 96 135 96 160 0 6 -34 10 -88 10
l-87 0 -23 -67z"/>
<path d="M7970 5547 c-13 -7 -27 -23 -31 -37 -4 -14 -7 -188 -8 -387 l-1 -363
445 0 445 0 0 384 0 385 -22 15 c-19 14 -76 16 -413 16 -291 0 -396 -3 -415
-13z m669 -113 l61 -7 0 -253 0 -254 -320 0 -320 0 0 260 0 260 259 0 c142 0
286 -3 320 -6z"/>
<path d="M8170 5275 l0 -45 210 0 210 0 0 45 0 45 -210 0 -210 0 0 -45z"/>
<path d="M8170 5080 l0 -50 210 0 210 0 0 50 0 50 -210 0 -210 0 0 -50z"/>
<path d="M8324 4682 c-102 -82 0 -249 106 -175 40 27 49 45 50 91 0 36 -5 49
-31 73 -36 34 -91 39 -125 11z"/>
<path d="M2519 3902 c-103 -54 -161 -170 -139 -278 13 -61 23 -69 74 -60 33 6
33 7 28 54 -8 92 53 169 142 179 76 9 156 -54 172 -135 6 -31 8 -32 55 -32
l49 0 0 53 c0 64 -36 144 -83 183 -84 71 -203 86 -298 36z"/>
<path d="M6741 2529 c-74 -37 -141 -102 -173 -168 -19 -37 -23 -63 -23 -136 0
-81 3 -95 30 -144 34 -62 101 -125 165 -155 63 -29 196 -29 260 1 69 31 135
96 169 165 77 153 9 346 -150 433 -44 23 -69 30 -134 33 -74 3 -85 1 -144 -29z
m238 -83 c38 -20 87 -70 108 -109 27 -53 29 -146 4 -202 -28 -63 -45 -82 -103
-111 -62 -31 -116 -39 -177 -24 -69 16 -120 56 -155 119 -25 48 -28 60 -24
120 8 104 64 179 162 218 39 16 145 9 185 -11z"/>
<path d="M2606 2532 c73 -68 148 -132 155 -132 3 0 30 37 60 83 29 45 58 85
64 89 5 4 -66 8 -160 8 l-170 -1 51 -47z"/>
<path d="M3324 2546 c-50 -23 -94 -69 -130 -136 -15 -28 -19 -56 -19 -135 0
-92 2 -104 30 -153 40 -73 110 -134 192 -167 126 -51 188 -84 231 -125 l42
-40 61 50 c54 43 87 59 202 103 64 23 147 87 181 139 44 67 70 163 61 228 -15
111 -100 227 -184 250 -57 16 -132 11 -179 -10 l-44 -20 30 -25 c20 -17 42
-25 66 -25 120 0 206 -106 193 -235 -10 -96 -64 -164 -164 -205 -74 -30 -124
-62 -178 -111 l-43 -40 -29 27 c-44 41 -135 101 -194 127 -74 33 -118 72 -145
132 -32 67 -31 127 2 194 35 69 81 99 156 104 36 2 64 10 76 20 10 9 24 17 31
17 22 0 -1 22 -43 41 -58 26 -139 25 -202 -5z"/>
</g>
</svg>
